<mxfile host="Electron" modified="2023-12-14T09:02:30.247Z" agent="Mozilla/5.0 (Windows NT 10.0; Win64; x64) AppleWebKit/537.36 (KHTML, like Gecko) draw.io/22.1.2 Chrome/114.0.5735.289 Electron/25.9.4 Safari/537.36" etag="sIGaTsWkyE4gs8Fjk767" version="22.1.2" type="device">
  <diagram name="Page-1" id="Page-1">
    <mxGraphModel dx="897" dy="768" grid="0" gridSize="10" guides="1" tooltips="1" connect="1" arrows="1" fold="1" page="0" pageScale="1" pageWidth="850" pageHeight="1100" background="none" math="0" shadow="0">
      <root>
        <mxCell id="0" />
        <mxCell id="1" parent="0" />
        <mxCell id="zLxK8a6lxpEmCROrdzA9-5" style="edgeStyle=orthogonalEdgeStyle;rounded=0;orthogonalLoop=1;jettySize=auto;html=1;entryX=0.5;entryY=0;entryDx=0;entryDy=0;" edge="1" parent="1" source="vnQsD4iaufEun4wp6r5F-1" target="zLxK8a6lxpEmCROrdzA9-2">
          <mxGeometry relative="1" as="geometry" />
        </mxCell>
        <mxCell id="vnQsD4iaufEun4wp6r5F-1" value="" style="image;aspect=fixed;html=1;points=[];align=center;fontSize=12;image=img/lib/azure2/identity/Azure_Active_Directory.svg;" parent="1" vertex="1">
          <mxGeometry x="1456.9999999999998" y="18" width="70" height="64" as="geometry" />
        </mxCell>
        <mxCell id="zLxK8a6lxpEmCROrdzA9-2" value="Tenant Root Group" style="text;strokeColor=none;align=center;fillColor=none;html=1;verticalAlign=middle;whiteSpace=wrap;rounded=0;" vertex="1" parent="1">
          <mxGeometry x="1432" y="142" width="120" height="30" as="geometry" />
        </mxCell>
        <mxCell id="zLxK8a6lxpEmCROrdzA9-7" style="edgeStyle=orthogonalEdgeStyle;rounded=0;orthogonalLoop=1;jettySize=auto;html=1;entryX=0.478;entryY=-0.069;entryDx=0;entryDy=0;entryPerimeter=0;" edge="1" parent="1" source="zLxK8a6lxpEmCROrdzA9-3" target="zLxK8a6lxpEmCROrdzA9-9">
          <mxGeometry relative="1" as="geometry">
            <mxPoint x="1492" y="442" as="targetPoint" />
          </mxGeometry>
        </mxCell>
        <mxCell id="zLxK8a6lxpEmCROrdzA9-3" value="`" style="image;aspect=fixed;html=1;points=[];align=center;fontSize=12;image=img/lib/azure2/general/Management_Groups.svg;" vertex="1" parent="1">
          <mxGeometry x="1461" y="219" width="66" height="64" as="geometry" />
        </mxCell>
        <mxCell id="zLxK8a6lxpEmCROrdzA9-6" style="edgeStyle=orthogonalEdgeStyle;rounded=0;orthogonalLoop=1;jettySize=auto;html=1;entryX=0.493;entryY=0.031;entryDx=0;entryDy=0;entryPerimeter=0;" edge="1" parent="1" source="zLxK8a6lxpEmCROrdzA9-2" target="zLxK8a6lxpEmCROrdzA9-3">
          <mxGeometry relative="1" as="geometry" />
        </mxCell>
        <mxCell id="zLxK8a6lxpEmCROrdzA9-14" style="edgeStyle=orthogonalEdgeStyle;rounded=0;orthogonalLoop=1;jettySize=auto;html=1;entryX=0.5;entryY=0;entryDx=0;entryDy=0;" edge="1" parent="1" source="zLxK8a6lxpEmCROrdzA9-9" target="zLxK8a6lxpEmCROrdzA9-12">
          <mxGeometry relative="1" as="geometry" />
        </mxCell>
        <mxCell id="zLxK8a6lxpEmCROrdzA9-9" value="`" style="image;aspect=fixed;html=1;points=[];align=center;fontSize=12;image=img/lib/azure2/general/Management_Groups.svg;" vertex="1" parent="1">
          <mxGeometry x="1463" y="368" width="66" height="64" as="geometry" />
        </mxCell>
        <mxCell id="zLxK8a6lxpEmCROrdzA9-10" value="Landing Zone" style="text;strokeColor=none;align=center;fillColor=none;html=1;verticalAlign=middle;whiteSpace=wrap;rounded=0;" vertex="1" parent="1">
          <mxGeometry x="1527" y="382" width="108" height="30" as="geometry" />
        </mxCell>
        <mxCell id="zLxK8a6lxpEmCROrdzA9-11" value="Entra ID" style="text;strokeColor=none;align=center;fillColor=none;html=1;verticalAlign=middle;whiteSpace=wrap;rounded=0;" vertex="1" parent="1">
          <mxGeometry x="1527.000769230769" y="35.000769230769166" width="60" height="30" as="geometry" />
        </mxCell>
        <mxCell id="zLxK8a6lxpEmCROrdzA9-12" value="" style="whiteSpace=wrap;html=1;" vertex="1" parent="1">
          <mxGeometry x="1090.5" y="553" width="811" height="575" as="geometry" />
        </mxCell>
        <mxCell id="zLxK8a6lxpEmCROrdzA9-13" value="" style="image;aspect=fixed;html=1;points=[];align=center;fontSize=12;image=img/lib/azure2/general/Subscriptions.svg;" vertex="1" parent="1">
          <mxGeometry x="1066" y="514" width="52.68" height="85" as="geometry" />
        </mxCell>
        <mxCell id="zLxK8a6lxpEmCROrdzA9-16" value="" style="rounded=0;whiteSpace=wrap;html=1;align=left;" vertex="1" parent="1">
          <mxGeometry x="1131" y="618.5" width="726" height="146.5" as="geometry" />
        </mxCell>
        <mxCell id="zLxK8a6lxpEmCROrdzA9-20" value="" style="image;aspect=fixed;html=1;points=[];align=center;fontSize=12;image=img/lib/azure2/management_governance/Policy.svg;" vertex="1" parent="1">
          <mxGeometry x="1372" y="370" width="60" height="64" as="geometry" />
        </mxCell>
        <mxCell id="zLxK8a6lxpEmCROrdzA9-21" value="organization policies" style="text;strokeColor=none;align=center;fillColor=none;html=1;verticalAlign=middle;whiteSpace=wrap;rounded=0;" vertex="1" parent="1">
          <mxGeometry x="1230" y="385" width="131.22" height="30" as="geometry" />
        </mxCell>
        <mxCell id="zLxK8a6lxpEmCROrdzA9-22" value="&lt;font style=&quot;font-size: 12px;&quot;&gt;network connectivity&lt;/font&gt;" style="text;strokeColor=none;align=center;fillColor=none;html=1;verticalAlign=middle;whiteSpace=wrap;rounded=0;fontStyle=1;strokeWidth=60;" vertex="1" parent="1">
          <mxGeometry x="1131" y="618.5" width="145.61" height="30" as="geometry" />
        </mxCell>
        <mxCell id="zLxK8a6lxpEmCROrdzA9-23" value="Virtual networks" style="image;aspect=fixed;html=1;points=[];align=center;fontSize=12;image=img/lib/azure2/networking/Virtual_Networks.svg;" vertex="1" parent="1">
          <mxGeometry x="1166" y="661.25" width="67" height="40" as="geometry" />
        </mxCell>
        <mxCell id="zLxK8a6lxpEmCROrdzA9-26" value="Subnets" style="shape=image;imageAspect=0;aspect=fixed;verticalLabelPosition=bottom;verticalAlign=top;image=data:image/png,iVBORw0KGgoAAAANSUhEUgAAAOEAAADhCAYAAAA+s9J6AAAAAXNSR0IArs4c6QAAIABJREFUeF7tnQdYVMf6/w+wtKVIXap0G5YUjcab3BhN0ShFBFeqDRQFxaCixntzszEWsIsKItWC4kpVxBLRmMREE/O7udHYO6gUYSnbKft/ZnXvLz//KpzZcvbsvj7PfXKfh5l5Z77v+9l3Zs45MwYE/AMFQAFKFTCg1DoYBwVAAQIghCAABShWACCk2AFgHhQACCEGQAGKFQAIKXYAmAcFAEKIAVCAYgUAQoodAOZBAYAQYgAUoFgBgJBiB4B5UAAghBgABShWACCk2AFgHhQACCEGQAGKFQAIKXYAmAcFAEKIAVCAYgUAQoodAOZBAYAQYgAUoFgBgJBiB4B5UAAghBgABShWACCk2AFgHhQACCEGQAGKFQAIKXYAmAcFAEKIAVCAYgUAQoodAOZBAYAQYgAUoFgBgJBiB4B5UAAghBgABShWACCk2AFgHhQACCEGQAGKFQAIKXYAmAcFAEKIAVCAYgUAQoodAOZBAYAQYgAUoFgBgJBiB4B5UAAghBgABShWACCk2AFgHhQACCEGQAGKFQAIKXYAmAcFAEKIAVCAYgUAQoodAOZBAYAQYgAUoFgBgJBiB4B5UAAghBgABShWACCk2AFgHhQACCEGQAGKFQAIKXYAmAcFAEKIAVCAYgUAQiUdsLGU+76xhV1EJ8Ec2tHVwTfubj/XLmkp5IRG1yrZtNZUzzqaxewUdRomshP5WtMpHeoIQIjpzM1crrmprf2aysdWyZdbJYSlkQFhTBAEr0tGfORkLh3KrJm2NDCkHLN5raiWw93p18l0WtZEuI6TGjAdbYnG3ywlDzLjpsQd1ooO6kgnAEIMR27Yu9eC6eqxY/sNxkwbhuH/14Kgs5uwYBgSQX0eDlgZHn4TwwTlVXYXZ47/WfbuiW+f8Albo2dhIpXJCEtjIyLep+OirPHXgPjIpU8p76gOdAAgJOnEtIpcK0sL3/RXAahoDoH4d1dzfkbIcCuSJigvns3d7r23/Z27LeJO+Y/Ji/9qJV3EMn/zB6atP4yOD01+QnmHad4BgJCEAzn791s7ungVrPtTFuJuatRjzZbObmKa4x3Pr9kzHvZYWIsKpHCrL59oNB3yMgAV3UQgLhli3Wz2tHrYfPbiR1rUfdp1BSDspcsQgA7OPvtTr3YF9gZA1Cyvo4sIdaibszZ8ak4vzVBebCd3p2Ue7612tL7t6R8CcdGgPq12T8/5x0YsfNxTefj7yxUACHsRGZyyfBsHywH7tt/oCrA17jkD/nVK+plt3bL1kWEbemFGK4qkF6X77nz61u3ejhOBmORvzbNtPTdsTmiSzuwIa9IZAGEPaq8rLLS1cParWP+n9O+9zYCKJlEmDLF9aJcaFcXTpFOVsbWVu9Ujs2H4g95CqMj4EX5W7a4tP46YG76AlhtRymimbF2A8DUKri3dY29lM6gi7YrkPbIAomaNOlv+OJ848Q1lnaTJ+lwu1+hfja6dL9v1fV0/0A9OuI8134N/dkQs+/Mbmuwz3W0BhK/wIOfAAQcblt+JjVclw3EArBUKm6e6NbtvYbNFdAuSWTsz0y4RQ5e9bmPmZWNCIAZ6WokGCM4PnxOeeI1u46aqvwDhS5RfzeW6WTv4Htt5VfgGmWmZoqlaoaApzo3nxWGzafmGiUwmM/j7xoKKTusBgWQDE4EY5mUt8BT/MGpu2II/ydbXx/IA4QteTzt40LXbYeBPO6/xPXEyIE8sbAq2fOC9Pja2nc4BhUAct21f1VNjnwk4GXG8hw3xVsf3I2eFJv5KZx000XeA8C8qp5XsdzexHXJu05V2HxwAm0WCpkiHeh9OdHSbJpynbhtyELfuP/HUxPtTXBDflJ57d3bYgovq7iud2wcIn3tvfXFhP5nNkNN519s88KagwpY4xzpPXQFQEdSKjCgy95tANtDRW0MjWBbEGMML788MnX+ebH19KQ8QEgSRVlo0SGY95Mf86zw7HACbxUJepH2dl64B+FcIPtyy71STifcnZDOiAsQPjC5+OmvKvG/1BSwy49R7CFOLDwwWWg29kHejxRJnCsqTiHiTnZu809jsVjLC07HspG17yh8yfIOxQTS4OGlW2LwqOo5dnX3WawhTy7lDhWYDfzx0u9UaJwPWCoUtcTY13pxZs1rU6SRtajtwW0HxfYZfKA6IA2yZxCSTXwDEFxyqtxCuL+O+2Woy6Mfiey0WACA5zAO35nHvG/efigtioNlvk2dMmVNBzqrultZLCDeUF4+qMRxw4eTDFgIHQPka0LrGR58y4IsIBG3N2XfPeGA0DogeVqYEu8/lmTOCZ+/RXbR6PzK9g1AOoNGACycf4AGI1oAh9nW+dHoftPfhQK4kOz0n95rRwNk4ILpbmhDhttfmzQiakUXOqu6V1isIN5RyR9cwBv10qqaVIPtuJHJ9rVDUEufW5Mths5t1LxTwRsTenrfnmmH/6Tgg2pgxiLmO1+NjgmbuxrOuG7X0BsJNFSVjr0h9zlxqELz0a/Ge3AkAvlqh4K15hXeN+0fighjreD1+ph6DqBcQbjta9tEP7Z6nb/CEWADyJKLmCOemfpABXw0ie3tewTXD/jNwQER15jvfWjg9aPpOAwMDWU8/iLr2d52HcPPRsk8vi71O4mbAZrGwOdTl4cB17NmNuuZ8VY9n5o7d6b8Z+C8kC6KiHwlud5NjJkVt0zcQdRrCrZUVQf8ReVTgAoimoDFuTf3XsdkAYC+Jnb0zd9uvxIAkbBDda1bGTGSn6hOIOgkhet9xx/FK9omnzkUP2yV4U1CUAR0b/NdGRtb3Mv6g2HMFwnfkZf1p0H8uLogL+tZ+FfXZ1G/0BUSdgxABuP348VnHGx1ya/lSLABbJKKmKQ71gwFA/N+VBVlZX57r8P/awvj5oaW9bKqDIAj0vulK78ZNd3/5zzIOh9Pdy6q0LaZTECoAPPnUMRc3Az7fBR3EYbPraOtVLen4gqysr851+H9FFkTUfXRcpL6AqDMQIgAzTpyYW9lgvws3A9aKRC3TWfUDIQOqjuLZGdlbzncNWGRrwiAdaygrJnnUbb538Y8UXc6IpIVRnXtU1xICMOv0qQXZd63Spc+PoCfbeotE1DzFoR7WgGSF60X55NyslCrhoDQcEFFGXOHbUnD/wqVYXQWR9hByOBxDp/f/tnTPHcu0XsTDS4vwYBMGV7pe11uSk7msUjQ4FQdEdLbp2kGthTEfT4rRxc0aWkOIMmD2mTOr9t23+GdHJ976XT4FtX/svzYmBu5U6DVSeAWTc7NWVgkHrcYBER0gleLbsi92QsAMXQORvhCiKWh19T9332Gu6s2R7S8LG9iEwYNJmVrJ2VkrqsSD1uKCuNyv7WBL243YxezFtDtK8lW60RNCmcwg59wPGzdcMViM8ymSfPdNImoOd2wYyomIgDsUlKEKo+7K/F0LS/j+23BARFPTrwaKq6QtN6fpyqWltIOQw+VaOtk5rcm5Y5yEmwF5YiEv1O7JYJiCYhCkoior8rKSywSDNuGC+M8BHWeMxfcmxwbT+2hJJCetIEQAOts7rc6+bbwIdR4HwlqRqDXO4ckQTrTuXGetIi403gzKiHvb/Le5m5F/fIHWiMn9Os5YNl4JiY5OovURk7SBMJXL7WPv4Lbl6yvds3AOZEIRxhOLWsJcaoesYc+A+/Q0jtzLDX6Rl5VUKhy01daYPIhoarpyIPGbueDSx7NCkml7zg8tIEQ3I9m4eG3berU7BncNyJOIW8Ic64etiYio0ZL4g248V2BVfkZkoWBoIY5vEYgpAxnXzZ7+8ff4yHhaXt+t9RCuLS21t7VjpW/7k4jE+Roe+Rk9hoh1bXrjazabVjfm6hOlq/fsnLardVgRziznGYjGN5miyx/MCZ5DuxfutRpCTulelrN9/91bLncE4/xKygEUilpi3QBAOgCtDIhojTinv8kDq/bfR8eHxtPqma/WQrjmwAEnOxe/PWsuS8bj/Do+fwzBC3dseJsTEXGfDkEIfSSIVXszwwtbBu2xNTUxIavHs+u7rZvthN8PjQ2mz/XdWgnh6vKDfW1t/HLSr4g/xc2A6FW0CFbjcACQbChTXz5tX0ZQHm/gIVtTMzOyvaEjiFoH4TdlRb62Nn4F2/8UvY8LoPxNGFbdcE5U1F2yToTy2qEAAnE7b2gFziwITU3jBvbhWTf//GY8O17r9wG0CsJ1XK6fhWO/4vWX+W/giP98Dcib6dL4zurw8DvaEU7QC1wFUvfuDNzR7H/Y3dzUlGwbCMQIP2u+J//CO7PC4q+Tra/J8loD4dri4oGWDr6H1v/BH4YLIHoVLYzVOBIA1GQIqdfWxsIdH+Q8HVhlY8a0IGsJgRjkaSXy77o4atbk+Mtk62uqvFZAuLac629q1b9s97X2/kpMQXlxbo9HctgxtzUlHtjRjAIb9mV+mNvcv9LGzBwbxIEdF0bHTpn3H830mJwVyiFcU1o6hGnjW77rapsvAEjOefpUesPezHHpzQMq3czNzMmOG51ZM8HTUjxE/OuoGWFz/iBbX93lKYVwXVnZcBnTtzLjRqsz7hQU7YJOdah/d3VU1C11iwXtU6vA2oNZo3bV+X7rymRake0JAnGMm4V0JPHvD6ZPnq1V13dTBqEcQEu/Y3tutDjhZkC0BgxhNY5eFx5+k6xToDw9FVh3MOetPfV9v7Uxt7InOwIE4nBHZvenZpfHRAbN+JFsfXWVpwTCtLKykd2WfkcLbrSwcAFEr6LFODeO0mcAd3I5lgZMsbGRUNYdz07T+ZuCFRAgEDPqPM+4MS1syILxHETZOOaVz6YHTD9Jtr46ymscwvUVFe8JzP1OFd1sZmIDKBTxot2aRqay2Xq1CZNZupTFsDKcL2Pent/SeddJ3PG/3yObGbsSfYy8n3S2eX/F6DIoiw/cRMuXmXsb5BsOZA9Lr/c6pwyInzAvfxoVMON0b22qq5xGIUwtL/+bmNnvdM71ZnPsNaBE3Bxiz3snNSpUbx7EZxxJGdPR51JxreCsAwoEhuGzcFD8F/1/xRE7iv+6mH1YY97+bvD84NR/qyt4qG43tSj3jYK6vtU25pZYU9MBNuayydaXP4kOnFlN5Vg0BmHqkSPvi818Tx282WyOmwGbxSLeFIeWEfoC4M7yf/Q1sL174p7goD8C7q/Q9RQ0CEb0Py+TOYcNxPbxCQGpvJ7q0PHvz0B0R2tER7L9V0xNP2L+GRgTEHOMbH1VldcIhGgKKjT3+1YZANEaMNqxZbi+ALi9cvn4JrO0KkknYUgGvhcDQ9xJEO4WYxtN2kePmx+w9oqqAkeb2llflOW787HXzy4W+CCON78aGhEYXUbFuNQO4caKig/azf2OK7MG1LsMeCJp2f3u9DSy2e9VAYQyoimD6GIJVr6dELxW656TqSLwNxXt7p9d5/69jbmNE9n2UEZEU9MpNlcnRk6KOUG2vrLl1Qrh+iNHxgjMfKqKbvKwN2F4EnHzVOenI1az2feUHSwd6mccWxJ3z2BTthlDtb1FIFoyhrZaSQP6JU1cp5NXva0v3NWvoNHzO2vzPq5k1ZODaGsuC7O5PCF84sxTZOsrU15tEG6qrBjbZuJbqQyAaAo607lxhL68C7rjSMrbj0w2/KbM9PN1wYCmpn1Nwn5qbh4ylsPmSJUJHG2tu+lgXt/cOtb31kw7L7J9RCCOYDFl48z/nBwTEHOEbH3c8mqBEAAk747N3GTzboefHzVJL9iqC0LUKwSijywlcP6kDZXke0mPGukl2e4bH/S95GphjTU1HcGyID61uh4VMSHigCZGrHIINx09+lGbqfcRZTKgfArKatCrryEyT3y+6m731i9VPQ19MYjQtNSWMarOTDrSK2nidokmgowKGwjEvAes02YWjgPI2n82NWUSbNurU9ifqX+zRqUQrikre1PK7Pdj0S2ehRKPIVqmOOjPLigKkLSKZVY8k/U8YyPCiGzA4JSXT0u7Uz5ICtjwA059utTZzM2xO/jE8TsjM8ehZPusADHM9lpE+GdRRWTrkymvMgg5Z88yPE37VH55SYB9Jgz6/muyfd17aRFTfyIzCLqXzaha8tk9YlOVurOgQieUDV2I2dlJE/Lm0l27nvqfVpFrtfe2/S9WlqyBPZV98e/P1ogWxDiz38fGBM76jmz93pZXGYQbj1V8crbJ9VSTCF3tiPevj6yl+uS8iR/j1aZvrazzUQ/vtxf2Veda8EV1jAwICecTgvQZLnRUeSM3z3/bY69f3czNmGT7jxLDQn/ze4bCX4YnBCSo5YUH1UAokxns/u58xqrLsnm4r6OhX52JfR4PS4tma+0X0GQd2Jvy6CXsJruM9o7uht4UV1kZUQfR7cRYap0yfqNAZY1qcUNzc/Zt/lninWyB8UuHLipd1b9uGfuTsA3qGKJKIJyblWU8yOftyl03lDgdDZ0JMrjTmDN2bKc6BqqtbWYdXeJQa7pJ48/t5OtC/hesJLZuPjN80d9rCnPHFrUMOIMDIcqG/xhm/MvdMydGq+O2YNVB6Pvm0V3XpeNxN2TkB/PY1ThyIiN1+u3/F4Mj82iy22PTLbWa/pGQv87WldJ/UeAGvfgYGk1Jsxv6/YkTn2iWNn+wVZ1Jw6+D49hxzar2lUogJGQyg62nzm7aeMM4WZnp6Ec2T0K3Rk0tVfUgtbm9LSUrXZqt1mr8jkQEoatkhXdySKpeHIy8qSj3jd1P+/+OC2HCkD4Nhtd/co+Pj8ff9HhFIKoGQrTNfuTIu5WNrJ+Fnd1YV5ah/kk7+bf+J/HT/toMjar7hh5PSCwK2jS9JkQQenevsNPVryte9NOKffuWH2vzTsWdjq4YTJyb+eH7Y9VxVbfKIORwOIZ9/jZm866bjEU4vzZINJT237dqWJA5fcpOVQe7traXlTXXuL3fH3VN0gt2GHsG2MMSSgnJpgD92B3NOprFLLjnfkVmauuNI5gxw5CIdbg+ZmbwzO9x6vdUR2UQIkMrCgttWY6+hZuvd3yGOy1Fa8PxfeqnpceEcXvqvK78PaNq4fJ7xPZUTT4ntDX84MqyT78n/RCbbpqj5FDrNfjQRYFLGE4WlF/P7de8K+6zoAR1ZEGkp0ohRA1+UVpqb23hdqzglnQUbkZEAw+1a4jaFh2qkXf3qA6s7RXLXB8w1j80N9bcGzNuHQvYnwfvOEz12NVpHwHI8x6cc6LdeRZOLKKEsNi3bT/RWRsfHxgvVFdfVQ4h6ug3ZWW+AobnmbIHAg+cwaM2EIhsh/qwzZFhJeoavDa1u/Pb2KL7HbnTNJENO7qITo+uFSxdXg8iAFt9/DOr2lzm4sQgAnCJn4BrZtAwe/r46Wp9lqoWCFFwp5aXD30o63v+h8ciK5xpgALEaQ71IZsiw8q1CRh19CXryHKPJ+ZpdyRdBEOda0P5rqgoOS05dMsKdYxDG9pEADZ6Dck8zXfCBjCpn+SwsP7xrJTp6gVQLdPRvzoBnStzie/+ww2ekMAFEf0iBdrWTd4YNbVCGxyszj5sr1wc/dBw8z51ZUP0zqhBt4HIUbLZNZnGd7y/zgcIwAbPIdnVAqfZuBlwoa+oWNRYN1MTAKodQmRg89GjgWUNjkc6FMeAYUQxmppGsOrGbwifqtEvnjG6qlSV9KqFpkYGnavvyzKXqgNE9KpaX/7awEXTVlYp1VEtrawsgCjO/jFAUsKvfzxDUwBqBEJkZOvJkwlF962UeuyABIp2ePJRaiT7jJbGgEq6lX+WYybsqMm+35kbrUoQ0TTUuf0fi5ZMW5Ouko5qWSPyKajn4IzTAud43Ay4yE9SImjQLIAagxAZ2naympNz2/Qr3GkpagNNTUPs9ANEkaR+3d2uzCRzY+L5KaP4US9fBwq+SHGTmaazdfBYCwRgveeQ3WcETrG4AGpyDfiiJ9W2MfOioaV791q4Ort9nXXTZAmOUIr25N8cOjaMSZsWqpYHp/ihrtqaaGrK6DYf/5ixvkTSTTBwsiJaAXR3GYjdhGuiCAvLY0kTk3TuS3oEYJ3n4F1nBc5zcOIKxVOSn/gQ0XYzLpGdyFetF3vXmsYgRN1ZVlFh5cJ0yN50rXsa7sN81A6amsY4Nby/blro+d4Nk76lskpWunRaN2590p0dJul6dgbp63ZPFYf+GhkQXSxpXJmp5K2FiezEOvoq8OqeP98F3XGa7zQfF8CFfiKuQdutWKoA1Oh0VCElp6zMxszC7fSO65LhyoI4y/nJiG/Y7N90McBeHFNm2QovKYMXIbO6kfRI+J3zq8Zsazqs3UI6Yp9Z+7C0ePbnWn9fO67vVAEg1RlQMXaNZsL/glhS4i429Tpfdl+I/TBfvkaUSsWh9o9HrY2M1MkDbV8WoOhdU8LBwUFqJBjWbdjZp0vWbW4kM2wzIEzajYwZVxInbdDJrPdXLZ6tAQfvPCNwnoeTAdFMakU/UbFB+61ZVGZASiFExleXlHg2Gfv8u+oh3xZHSMUAkKAzHOvfWRMRdgn3VxXq0UcB+Rqw76DtZ0WuCThxg9aAC3wEe8VPGxI0+RjidQpTkgkVHfqKy/WQWvj+uO+OsK8yU1MkbJg9gEgflPB6+uw54MDN1QI3rC91nm3CCPIYHQ8WqvNdULKjoxRCRUZsN/E4U/5A7IPzy6YYMJqasp0aRn7D1q8zasg6nK7lnz0HHLT1tMB1IU6cPMuA/D0d/Pb5i9lskTbpQDmESAzOwYOuMmu/40X3xMNwBFYI2iKVCsMd697iwPXZ2hRjSvdFFVPQBJ/2fF5XzQKOGr+GwB2oVkAoB/HAAQcTW5/yjFsd7yk1NZVIRaGsupFrw8N18howXEfTtZ5MJjNYUHBo82mB2+c4P9DyDOjdltHU0LCEM2uWWBt10BoI5SByuXbGVh7lmbc6/q4ciBJRhHPjMI6eXaetjQGmTJ+eAcjdfFrgigUgOqpwvndbfhefn6htU9C/6qJVEKKOoa/zrex9yzNvdnygDIgtHZL2UPu6wWsiImqUCQSoS40CCMD5+YfSzwrdFuBmQG2egmo1hPKMWFZmwzS335V722AajgP+d40o4Yc7Nb4FGZEakHCtygHM4+5Q7jFE6/YOvnC5NmdAhT5alwkVHUOvuDmZ22dsuS6LViojSqVtoU4N/mvY7Ee4QQH1NKcAAjCx4NAW3McQaAqa6MFbtzAwcKXmeq2cJa2FEA0Lgcgys92efctghjIZkS8VtwS5PvJfGxrzRDm5oLY6FVB2DYhO64v1bN76eUBQsjr7qeq2tRpCNFj09YULq+/q3bcZWItzhWB8qbg1zKHenxMRofGDdlXtNF1tLyGPu71a6IK9BpznxduYHBCUQjd9tB5CBYhODq7Lc++ZfWmjxAEsLVJJ6xTX2kGQEbUvTOcXFGecUeJriESvplVJAZO/0r6R9dwjWkAo36w5epRpYWS+Yu89sy+V+TBY2iXlfezW6rk+OLi9Z3mghCYUSMw/lI77JgyagsZ5NG1eFBi8RBN9VYcN2kCoGPymqlPLs+8xU3EzIrpIQNYlaQpyaPTisNmUfMSpDkfStc2E/KKtuJswcgDdG/+1KDjkG7qOH/WbdhCiTm+pOrl0f42V/K44Y0z1pV2SpnGWNZ4bNXCkHWYXdb7avDxuxlkh+hyJQToO5Q/i+zb8c1HQlDV0F4r04LVlwJuqqmYfrrHJVaY/3Z3ihoket7y18X1CZcZFh7qJ+Yd3nBY4Jeg7gLTNhP+dmlZWzj78yE5JEEX1Ez1u+wCImkM3If/wzmoBOpKCfAZEy4npzvXLFwWHrNdcj9VribaZUCHLlmNHIg7VOhxA6wPcDZvuTlHdRMemfrBGVG+wodbn5xfnnBGwZuMAiKagCR5NXyYFBq9Wf081Z4H2ECKp1leUTjjb4n68li9VBsT6qVaPfLXla2vNhYDmLM0rKMk+2+4Ya2tCPgM+exOmibMgIGiVum5H0pwS/9eSTkAoB/FI6ZizPPfvcEFEmdSa0VH3ietNX5iaqj4cE/YU7z7dxoqzIwmg4lrcGJe6FYsCQ9brGoC0XxO+GCrrjpSO+43vVY179wUC0ZwQP5nIrPHR1m/PVI+H+ltMyC/ZdZrvOBcHQLT7He70aN6i4LDdugigzkGIBrShvHjURaHPBWVA7GMguPZjwnh/9Yen7ltAa8BqPms2WQCRMvJ3Qfs+SVwUGJapqwDqJIRoUKmlpW9cEnv9rgyIzgz+79/GT3hL9zFR3wjn5RfnnuGzZpEFEE1BpQhA97qFi4JCd+oygDoLoTwjVhQPuyL2uvg/T8VmOLum6FfY3bjt4vG5E99VX5jqbsuJBcVZ37az5uAAiKagkc6PExYGhe7SdQB1GsJnGbHojYdEvx+qHwutcD6FQiC6GLVeODVv0mjdxUX1I4svKMn7js8ifUW1IgPGudUtSAoOzdAHAHUeQjTAb4qL+z0x9L5U/VhojQuir1nrmfLYSR+pPlx1r8V5+aW5ZwWOpC/oVOyCRjk/np8cFJqlLwDqBYRokKvLD/ZtMhzwn6qHAqzTvlFGBBB7/sHAnYIqWp7m+DA6eUp4Yc+WdKuEzjwn7Mkt6GxTsUW/82UPRV6QEXtSi/zf0XPA6nYnrOvJkLVpTo/mJE+emkPeMv1r6A2EyFUcLtdZZOp9vrwG77RvlBGHmjWXH4gNCqG/61U3gnn5JflnBayZOD9uaBoa6Vgzd3EIO0efpqB/VV+vIJSDeOCAA2Htc/rg/Y43cIIGpqb/F175q2h8VhyOlvIMqKdTUL2G8L8g2ngeOXi3ezRO8MgzonlL1YHZAZNUl0/o1xJ6E6Za4DgX52VsOYCsmsjkkGkH6Tdy1fZY7zKhQj502jeD6cbdd7/7I2wQ9Xhq+mwNiDIg+ZexkQ/YrNq4xSFspT5DUy0K1LWmtxAiydcVFtp22XmV7LrVPRbnbFOUEd+xfJqfN2PybOpcqHnLyqwBjRmGxGSbe+FLQiMOab7n2mlRryFELklYK34wAAAFiUlEQVTlcvsQlqyC/LtGk7Ezojnv6IHZgUHa6WLV9iqhoAS9CxpLViv0g2VjxiAm294OXDIlulK1vaJ3a3oPoXyNuH+/tamN85aC+6akHzKj+ijARlo37c+NCY6hdzi8vvcJe0pzq9vJP4hXABhsd3vi0pDo47qsEc7YAMLnqnG4XEumhcPG9DvG8ThTU3QF1/tWT/NyZ4TE4jhC2+vEF5Tt+47vEI2bAUNs7362eErkCW0fJxX9Awj/ojrnaBbTiuGXuuWWyUJcEN+zatKpNaL8cpY9FfvO8u2jcAEM7nNnwtKwqJNUBDgdbAKEL3gJgWhh5P2v3HvM5Thnm6KMqCsgIgAX7j1S+G27XQQAqD6cAcKXaMvlco0eM5lLcx/YpOJ8BoVAnGBbv2NbVNhC9blOvS0jAJP3Hj54vN2F9PV08s/ALE2IDy1vjVseGnVWvT2lf+sA4St8iO5Jdxv15oKvb9lvw52aBtk8+WpDNHsV3cIEAfj53sOHTrS7TMXNgEHWt8amTI35jm5jp6K/AOFrVEfBmHOyYmb6HYc8nIxYK+kiFrvee2dx2PRLVDgXxyYa8+K9xUVV7c5sXAADrW99sGxqzA849vWxDkDYg9dRUO6uKo3dX+eW3dHZTSpG0MvJXqbSuyUzP/QlVZHCwmn7MoK284ZWkM3+aArqYWVKjDG79uEy9vRzFA6BdqYBwl64TJ4Rj5eG7qpxOUz27guUDeOGdhpzxo7t7IUpyotE5p+4cVlo2Z9M5lesAceaXX1/2bSZ5ykfBM06ABCScNjuk4cDsu67HUWHEPU2SBGEXzg/sUqkwQ1QaEPqX42unWR2hRUP4mEKSiKQXigKEJLULqeqOLCk0eNIbw8ZRjulEYPpkQmzsrKMt3QOlvYWQkUG/Njy5uglodEXSEoJxZ8rABBihEL2Me4npU+9TvUEIgrSt+1NBHvCR1pimNF4FbQjXN13Qldv1r5obANsmcQ7hldHLw8HAJVxFkCIqd7u48Xjyxo8TrwORDQVXerxcMLnk+nztsjSA5VnT/JsPnzddFuxCTPW4sbIpaHRv2JKCNUgEyofA7lHuaOPt/v9dLlZQJgYGBAmDEP5paUoSHldMiLJg7dx2eSgFOUtaa6FHUU7+u9vffvGqywqAPzQ7OrfUtgzftZcz3TXEmRCJX2bWXbQq9OctfaG2G5KnVBmiprrzxRecTN8PD8xiP2jks1TUn1H0e6A/a1DjqL1LPpxUfxDPyyfuFgS/gaX300Jm36Rks7poFGAUEVOTa/ab20s7jbrImRdC6bMaFJRs5Q1k1GS4dNu4LK6xtAzxNDQ2MyWIeM7dFzPZXQ1rZ0/ZX4DZR3TQcMAoQ46VZVDyuJm9TEiBEY8cZckZXqKQJVtQ1vPFAAIIRJAAYoVAAgpdgCYBwUAQogBUIBiBQBCih0A5kEBgBBiABSgWAGAkGIHgHlQACCEGAAFKFYAIKTYAWAeFAAIIQZAAYoVAAgpdgCYBwUAQogBUIBiBQBCih0A5kEBgBBiABSgWAGAkGIHgHlQACCEGAAFKFYAIKTYAWAeFAAIIQZAAYoVAAgpdgCYBwUAQogBUIBiBQBCih0A5kEBgBBiABSgWAGAkGIHgHlQACCEGAAFKFYAIKTYAWAeFAAIIQZAAYoVAAgpdgCYBwUAQogBUIBiBQBCih0A5kEBgBBiABSgWAGAkGIHgHlQACCEGAAFKFYAIKTYAWAeFAAIIQZAAYoVAAgpdgCYBwUAQogBUIBiBQBCih0A5kEBgBBiABSgWAGAkGIHgHlQACCEGAAFKFYAIKTYAWAeFAAIIQZAAYoVAAgpdgCYBwUAQogBUIBiBQBCih0A5kEBgBBiABSgWAGAkGIHgHlQACCEGAAFKFbg/wFlb6a0QveY5wAAAABJRU5ErkJggg==;" vertex="1" parent="1">
          <mxGeometry x="1284" y="650.12" width="59" height="59" as="geometry" />
        </mxCell>
        <mxCell id="zLxK8a6lxpEmCROrdzA9-27" value="NSG" style="image;aspect=fixed;html=1;points=[];align=center;fontSize=12;image=img/lib/azure2/networking/Network_Security_Groups.svg;" vertex="1" parent="1">
          <mxGeometry x="1395.45" y="657.43" width="36.55" height="44.38" as="geometry" />
        </mxCell>
        <mxCell id="zLxK8a6lxpEmCROrdzA9-28" value="policy assignment" style="image;aspect=fixed;html=1;points=[];align=center;fontSize=12;image=img/lib/azure2/management_governance/Policy.svg;" vertex="1" parent="1">
          <mxGeometry x="1158" y="734" width="60" height="64" as="geometry" />
        </mxCell>
        <mxCell id="zLxK8a6lxpEmCROrdzA9-29" value="Cost management" style="image;aspect=fixed;html=1;points=[];align=center;fontSize=12;image=img/lib/azure2/general/Cost_Management.svg;" vertex="1" parent="1">
          <mxGeometry x="1261.6699999999998" y="739" width="65.89" height="59" as="geometry" />
        </mxCell>
        <mxCell id="zLxK8a6lxpEmCROrdzA9-30" value="Role Assignemnt" style="shape=image;imageAspect=0;aspect=fixed;verticalLabelPosition=bottom;verticalAlign=top;image=https://code.benco.io/icon-collection/azure-icons/Azure-AD-Roles-and-Administrators.svg;" vertex="1" parent="1">
          <mxGeometry x="1503" y="733" width="66" height="66" as="geometry" />
        </mxCell>
        <mxCell id="zLxK8a6lxpEmCROrdzA9-31" value="Network Watcher" style="shape=image;imageAspect=0;aspect=fixed;verticalLabelPosition=bottom;verticalAlign=top;image=https://code.benco.io/icon-collection/azure-icons/Network-Watcher.svg;" vertex="1" parent="1">
          <mxGeometry x="1640" y="732" width="66" height="66" as="geometry" />
        </mxCell>
        <mxCell id="zLxK8a6lxpEmCROrdzA9-32" value="Security Center" style="shape=image;imageAspect=0;aspect=fixed;verticalLabelPosition=bottom;verticalAlign=top;image=https://code.benco.io/icon-collection/azure-icons/Security-Center.svg;" vertex="1" parent="1">
          <mxGeometry x="1786" y="733" width="66" height="66" as="geometry" />
        </mxCell>
        <mxCell id="zLxK8a6lxpEmCROrdzA9-33" value="&lt;div style=&quot;&quot;&gt;&lt;br&gt;&lt;/div&gt;" style="rounded=0;whiteSpace=wrap;html=1;align=left;" vertex="1" parent="1">
          <mxGeometry x="1133" y="856" width="726" height="162" as="geometry" />
        </mxCell>
        <mxCell id="zLxK8a6lxpEmCROrdzA9-34" value="policy assignment" style="image;aspect=fixed;html=1;points=[];align=center;fontSize=12;image=img/lib/azure2/management_governance/Policy.svg;" vertex="1" parent="1">
          <mxGeometry x="1161" y="986" width="60" height="64" as="geometry" />
        </mxCell>
        <mxCell id="zLxK8a6lxpEmCROrdzA9-35" value="Cost management" style="image;aspect=fixed;html=1;points=[];align=center;fontSize=12;image=img/lib/azure2/general/Cost_Management.svg;" vertex="1" parent="1">
          <mxGeometry x="1264.6699999999998" y="991" width="65.89" height="59" as="geometry" />
        </mxCell>
        <mxCell id="zLxK8a6lxpEmCROrdzA9-36" value="Role Assignemnt" style="shape=image;imageAspect=0;aspect=fixed;verticalLabelPosition=bottom;verticalAlign=top;image=https://code.benco.io/icon-collection/azure-icons/Azure-AD-Roles-and-Administrators.svg;" vertex="1" parent="1">
          <mxGeometry x="1504" y="984" width="66" height="66" as="geometry" />
        </mxCell>
        <mxCell id="zLxK8a6lxpEmCROrdzA9-37" value="Network Watcher" style="shape=image;imageAspect=0;aspect=fixed;verticalLabelPosition=bottom;verticalAlign=top;image=https://code.benco.io/icon-collection/azure-icons/Network-Watcher.svg;" vertex="1" parent="1">
          <mxGeometry x="1643" y="984" width="66" height="66" as="geometry" />
        </mxCell>
        <mxCell id="zLxK8a6lxpEmCROrdzA9-38" value="Security Center" style="shape=image;imageAspect=0;aspect=fixed;verticalLabelPosition=bottom;verticalAlign=top;image=https://code.benco.io/icon-collection/azure-icons/Security-Center.svg;" vertex="1" parent="1">
          <mxGeometry x="1789" y="985" width="66" height="66" as="geometry" />
        </mxCell>
        <mxCell id="zLxK8a6lxpEmCROrdzA9-39" value="development" style="text;strokeColor=none;align=center;fillColor=none;html=1;verticalAlign=middle;whiteSpace=wrap;rounded=0;fontStyle=1;strokeWidth=60;" vertex="1" parent="1">
          <mxGeometry x="1150.52" y="865.95" width="79.48" height="30" as="geometry" />
        </mxCell>
        <mxCell id="zLxK8a6lxpEmCROrdzA9-40" value="VM" style="image;aspect=fixed;html=1;points=[];align=center;fontSize=12;image=img/lib/azure2/compute/Virtual_Machine.svg;" vertex="1" parent="1">
          <mxGeometry x="1183" y="909" width="53" height="49.16" as="geometry" />
        </mxCell>
        <mxCell id="zLxK8a6lxpEmCROrdzA9-41" value="Storage Accounts" style="image;aspect=fixed;html=1;points=[];align=center;fontSize=12;image=img/lib/azure2/storage/Storage_Accounts_Classic.svg;" vertex="1" parent="1">
          <mxGeometry x="1284" y="914.3199999999999" width="54.8" height="43.84" as="geometry" />
        </mxCell>
        <mxCell id="zLxK8a6lxpEmCROrdzA9-43" value="tags" style="image;aspect=fixed;html=1;points=[];align=center;fontSize=12;image=img/lib/azure2/general/Tags.svg;" vertex="1" parent="1">
          <mxGeometry x="1387" y="986" width="60" height="65" as="geometry" />
        </mxCell>
        <mxCell id="zLxK8a6lxpEmCROrdzA9-44" value="tags" style="image;aspect=fixed;html=1;points=[];align=center;fontSize=12;image=img/lib/azure2/general/Tags.svg;" vertex="1" parent="1">
          <mxGeometry x="1383.72" y="741" width="60" height="65" as="geometry" />
        </mxCell>
      </root>
    </mxGraphModel>
  </diagram>
</mxfile>
